<svg id="divorce" enable-background="new 0 0 300 300" height="512" viewBox="0 0 300 300" width="512" xmlns="http://www.w3.org/2000/svg"><g><circle cx="82" cy="66.674" r="4"/><circle cx="214" cy="66.674" r="4"/><path d="m122 183.16v-64.65c0-19.762-16.076-35.836-35.836-35.836h-8.328c-19.76 0-35.836 16.074-35.836 35.836v64.647c-7.406 5.764-12 16.31-12 27.833v39.684c0 2.211 1.791 4 4 4s4-1.789 4-4v-39.684c0-5.833 1.479-11.411 4-15.765v7.448c0 1.336.668 2.586 1.781 3.328l36 24c.672.449 1.445.672 2.219.672s1.547-.223 2.219-.672l36-24c1.113-.742 1.781-1.992 1.781-3.328v-7.447c2.521 4.353 4 9.931 4 15.764v39.684c0 2.211 1.791 4 4 4s4-1.789 4-4v-39.684c0-11.522-4.595-22.064-12-27.83zm-20.568-28.486c-1.789 6.882-7.999 12-15.432 12h-8c-7.433 0-13.643-5.118-15.432-12zm.568-8h-40v-28h8c4.299 0 8.456-1.432 11.884-4h.231c3.428 2.568 7.585 4 11.884 4h8v28zm-24.164-56h8.328c12.627 0 23.299 8.458 26.694 20h-18.858c-3.455 0-6.648-1.477-8.988-4.152-1.52-1.734-4.504-1.734-6.023 0-2.34 2.676-5.533 4.152-8.988 4.152h-18.859c3.395-11.542 14.067-20 26.694-20zm36.164 109.859-32 21.332-32-21.332v-81.859h4v32c0 13.234 10.766 24 24 24h8c13.234 0 24-10.766 24-24v-32h4z"/><path d="m254 179.969v-57.295-20.613c0-5.745-3.167-10.884-8.156-13.542-.786-7.752-7.274-13.844-15.231-13.844h-25.227c-7.958 0-14.447 6.094-15.231 13.849-4.979 2.664-8.156 7.826-8.156 13.538v20.613c0 2.211 1.789 4 4 4v22c0 11.454 8.806 20.883 20 21.898v.956l-3.684 1.599c-5.648 2.457-11.59 4.223-17.875 6.09l-2.07.617c-9.792 2.913-16.37 10.886-16.37 19.827v51.012c0 2.211 1.789 4 4 4s4-1.789 4-4v-51.012c0-5.375 4.281-10.266 10.656-12.164l2.062-.613c6.242-1.855 12.695-3.77 18.785-6.422l1.659-.72c1.354 2.882 3.812 5.116 6.837 6.194v36.737c0 2.211 1.789 4 4 4s4-1.789 4-4v-36.737c3.025-1.078 5.483-3.312 6.837-6.194l1.163.505v50.426c0 2.211 1.789 4 4 4h16c2.211 0 4-1.789 4-4v-42.134c4.869 2.324 8 6.539 8 11.123v51.012c0 2.211 1.789 4 4 4s4-1.789 4-4v-51.012c.001-8.831-6.429-16.693-15.999-19.694zm-64-77.908c0-.673.116-1.325.289-1.954.578 1.497 2.008 2.567 3.711 2.567 2.211 0 4-1.789 4-4v-8.613c0-4.074 3.312-7.387 7.387-7.387h25.227c4.074 0 7.387 3.312 7.387 7.387v8.613c0 2.211 1.789 4 4 4 1.699 0 3.129-1.065 3.709-2.559.17.626.291 1.272.291 1.945v16.613h-56v-16.612zm4 46.613v-22h48v22c0 7.719-6.281 14-14 14h-20c-7.719 0-14-6.281-14-14zm24 30c-2.207 0-4-1.793-4-4v-4h8v4c0 2.207-1.793 4-4 4zm20 48v-58.43c3.2-1.642 5.945-4.038 8-6.962v65.392z"/><path d="m221.055 150.674 7.156 3.578c.574.285 1.184.422 1.785.422 1.469 0 2.879-.809 3.582-2.211.988-1.977.188-4.379-1.789-5.367l-8-4c-.555-.277-1.168-.422-1.789-.422h-8c-.621 0-1.234.145-1.789.422l-8 4c-1.977.988-2.777 3.391-1.789 5.367.992 1.977 3.395 2.77 5.367 1.789l7.156-3.578z"/><path d="m150 50.674c-2.211 0-4 1.789-4 4v212c0 2.211 1.789 4 4 4s4-1.789 4-4v-212c0-2.211-1.789-4-4-4z"/><path d="m99.824 50.85c.781.781 1.805 1.172 2.828 1.172s2.047-.391 2.828-1.172l4.52-4.52 4.52 4.52c.781.781 1.805 1.172 2.828 1.172s2.047-.391 2.828-1.172c1.562-1.562 1.562-4.094 0-5.656l-4.52-4.52 4.52-4.52c1.562-1.562 1.562-4.094 0-5.656s-4.094-1.562-5.656 0l-4.52 4.52-4.52-4.52c-1.562-1.562-4.094-1.562-5.656 0s-1.562 4.094 0 5.656l4.52 4.52-4.52 4.52c-1.562 1.562-1.562 4.093 0 5.656z"/><path d="m167.824 58.85c.781.781 1.805 1.172 2.828 1.172s2.047-.391 2.828-1.172l4.52-4.52 4.52 4.52c.781.781 1.805 1.172 2.828 1.172s2.047-.391 2.828-1.172c1.562-1.562 1.562-4.094 0-5.656l-4.52-4.52 4.52-4.52c1.562-1.562 1.562-4.094 0-5.656s-4.094-1.562-5.656 0l-4.52 4.52-4.52-4.52c-1.562-1.562-4.094-1.562-5.656 0s-1.562 4.094 0 5.656l4.52 4.52-4.52 4.52c-1.562 1.562-1.562 4.093 0 5.656z"/></g></svg>