<svg height="512pt" viewBox="0 0 512 512" width="512pt" xmlns="http://www.w3.org/2000/svg"><path d="m437.019531 74.980469c-48.351562-48.351563-112.640625-74.980469-181.019531-74.980469s-132.667969 26.628906-181.019531 74.980469c-48.351563 48.351562-74.980469 112.640625-74.980469 181.019531 0 48.453125 13.601562 95.621094 39.332031 136.410156 25.03125 39.683594 60.40625 71.734375 102.300781 92.691406 3.753907 1.875 8.324219.355469 10.199219-3.402343 1.878907-3.753907.359375-8.324219-3.398437-10.199219-39.40625-19.714844-72.6875-49.867188-96.238282-87.203125-24.199218-38.355469-36.988281-82.722656-36.988281-128.296875 0-64.316406 25.046875-124.785156 70.527344-170.265625s105.949219-70.527344 170.265625-70.527344 124.785156 25.046875 170.265625 70.527344 70.527344 105.949219 70.527344 170.265625-25.046875 124.785156-70.527344 170.265625-105.949219 70.527344-170.265625 70.527344c-27.648438 0-54.738281-4.640625-80.511719-13.789063-3.957031-1.402344-8.304687.664063-9.710937 4.625-1.402344 3.957032.667968 8.304688 4.625 9.707032 27.410156 9.730468 56.207031 14.664062 85.597656 14.664062 68.378906 0 132.667969-26.628906 181.019531-74.980469 48.351563-48.351562 74.980469-112.640625 74.980469-181.019531s-26.628906-132.667969-74.980469-181.019531zm0 0"/><path d="m140.902344 81.699219c-2.109375-.492188-4.320313-.0625-6.09375 1.179687-56.433594 39.578125-90.128906 104.296875-90.128906 173.121094 0 116.523438 94.796874 211.320312 211.320312 211.320312 27.859375 0 54.957031-5.351562 80.539062-15.910156 1.996094-.824218 3.550782-2.460937 4.269532-4.496094.71875-2.039062.539062-4.285156-.5-6.183593l-194.460938-355.277344c-1.039062-1.898437-2.839844-3.261719-4.945312-3.753906zm115.097656 370.410156c-108.136719 0-196.109375-87.972656-196.109375-196.109375 0-61.03125 28.546875-118.582031 76.78125-155.628906l16.09375 29.402344c-6.386719 24.925781-9.902344 48.410156-9.902344 66.398437 0 65.628906 46.683594 119.515625 105.53125 123.820313v86.316406h-31.480469c-4.199218 0-7.601562 3.40625-7.601562 7.605468 0 4.199219 3.402344 7.605469 7.601562 7.605469h78.167969c4.199219 0 7.605469-3.40625 7.605469-7.605469 0-4.199218-3.40625-7.605468-7.605469-7.605468h-31.476562v-74.039063l59.199219 108.15625c-21.375 7.757813-43.808594 11.683594-66.804688 11.683594zm-71.050781-263.542969h-26.664063c.59375-11.363281 2.449219-24.601562 5.425782-38.800781zm-26.636719 15.210938h34.960938l55.273437 100.980468c-48.273437-4.058593-86.882813-47.210937-90.234375-100.980468zm0 0"/><path d="m366.148438 426.546875c1.039062 1.898437 2.835937 3.265625 4.941406 3.757813.574218.132812 1.152344.195312 1.726562.195312 1.550782 0 3.078125-.472656 4.367188-1.378906 56.433594-39.574219 90.125-104.292969 90.125-173.121094 0-116.523438-94.792969-211.320312-211.308594-211.320312-27.859375 0-54.960938 5.355468-80.546875 15.910156-1.996094.824218-3.550781 2.460937-4.269531 4.5-.71875 2.039062-.535156 4.285156.5 6.179687zm-104.597657-222.769531h92.140625c-2.164062 34.84375-19.136718 66.222656-45.769531 84.71875zm-5.550781-143.886719c108.128906 0 196.101562 87.972656 196.101562 196.109375 0 61.03125-28.546874 118.585938-76.78125 155.628906l-60.058593-109.726562c33.40625-22.507813 53.875-62.316406 53.875-105.730469 0-23.332031-5.792969-55.230469-15.890625-87.515625-.992188-3.175781-3.929688-5.335938-7.253906-5.335938h-46.046876c-4.199218 0-7.601562 3.40625-7.601562 7.605469s3.402344 7.605469 7.601562 7.605469h40.414063c7.515625 25.257812 12.3125 50.515625 13.351563 70.035156h-100.484376l-38.335937-70.035156h54.636719c4.199218 0 7.605468-3.40625 7.605468-7.605469s-3.40625-7.605469-7.605468-7.605469h-62.960938l-17.378906-31.746093c21.378906-7.757813 43.8125-11.683594 66.8125-11.683594zm0 0"/></svg>