<svg height="512pt" viewBox="-108 0 512 512.00025" width="512pt" xmlns="http://www.w3.org/2000/svg"><path d="m243.539062 73.398438-16.699218-13.761719c-3.195313-2.632813-7.921875-2.179688-10.558594 1.019531-2.632812 3.195312-2.175781 7.921875 1.019531 10.558594l16.699219 13.761718c16.113281 13.277344 28.4375 30.09375 36.253906 48.914063-6.089844-2.375-13.921875-4.398437-25.515625-4.398437-16.640625 0-25.566406 4.214843-32.738281 7.605468-5.402344 2.550782-9.308594 4.394532-15.878906 4.394532-6.613282 0-10.492188-1.84375-15.863282-4.390626-7.144531-3.390624-16.035156-7.609374-32.769531-7.609374-16.640625 0-25.566406 4.214843-32.738281 7.605468-5.402344 2.550782-9.308594 4.394532-15.878906 4.394532-6.613282 0-10.492188-1.84375-15.863282-4.390626-7.144531-3.390624-16.03125-7.609374-32.757812-7.609374-11.5625 0-19.398438 2.03125-25.507812 4.40625 7.816406-18.820313 20.144531-35.640626 36.257812-48.921876l83.703125-68.980468c1.644531-1.359375 3.949219-1.359375 5.59375 0l42.308594 34.867187c3.199219 2.636719 7.921875 2.179688 10.558593-1.019531 2.636719-3.195312 2.179688-7.921875-1.019531-10.554688l-42.308593-34.871093c-7.148438-5.890625-17.523438-5.890625-24.671876 0l-83.703124 68.980469c-32.703126 26.949218-51.460938 66.910156-51.460938 109.628906v145.945312c0 42.71875 18.757812 82.679688 51.460938 109.628906l83.703124 68.980469c3.574219 2.945313 7.953126 4.417969 12.335938 4.417969s8.761719-1.472656 12.335938-4.417969l45.578124-37.558593c3.195313-2.636719 3.648438-7.363282 1.015626-10.558594-2.632813-3.195313-7.359376-3.652344-10.554688-1.019532l-45.578125 37.558594c-1.644531 1.359375-3.949219 1.359375-5.59375 0l-83.703125-68.980468c-16.109375-13.277344-28.4375-30.09375-36.253906-48.914063 6.09375 2.375 13.921875 4.398437 25.515625 4.398437 16.671875 0 25.578125-4.214843 32.738281-7.605468 5.386719-2.550782 9.28125-4.394532 15.878906-4.394532 6.613282 0 10.492188 1.84375 15.863282 4.390626 7.144531 3.390624 16.035156 7.609374 32.769531 7.609374 16.640625 0 25.574219-4.214843 32.746093-7.605468 5.402344-2.550782 9.304688-4.394532 15.875-4.394532 6.609376 0 10.488282 1.84375 15.859376 4.390626 7.144531 3.390624 16.035156 7.609374 32.757812 7.609374 11.574219 0 19.40625-2.03125 25.507812-4.40625-7.816406 18.824219-20.144531 35.644532-36.257812 48.921876l-13.433594 11.070312c-3.195312 2.636719-3.652344 7.363281-1.019531 10.558594 1.484375 1.800781 3.628906 2.730468 5.792969 2.730468 1.679687 0 3.367187-.558593 4.765625-1.710937l13.433593-11.070313c32.703126-26.953124 51.460938-66.910156 51.460938-109.632812v-145.941406c0-42.71875-18.757812-82.679688-51.460938-109.628906zm-166.960937 77.253906c6.046875 2.871094 12.300781 5.839844 22.292969 5.839844 9.9375 0 16.214844-2.964844 22.285156-5.832032 6.714844-3.171875 13.058594-6.167968 26.332031-6.167968 13.355469 0 19.660157 2.992187 26.339844 6.164062 6.046875 2.871094 12.304687 5.839844 22.292969 5.839844 9.9375 0 16.214844-2.96875 22.285156-5.832032 6.714844-3.171874 13.054688-6.167968 26.332031-6.167968 16.9375 0 22.59375 4.832031 31.714844 8.597656 1.339844 5.574219 2.300781 11.230469 2.882813 16.925781-12.601563-3.011719-18.503907-10.523437-34.597657-10.523437-9.96875 0-16.238281 2.96875-22.304687 5.835937-6.695313 3.171875-13.015625 6.164063-26.3125 6.164063-13.355469 0-19.660156-2.992188-26.339844-6.164063-6.046875-2.867187-12.300781-5.835937-22.292969-5.835937-9.9375 0-16.214843 2.964844-22.285156 5.832031-6.714844 3.171875-13.054687 6.167969-26.332031 6.167969-13.347656 0-19.65625-2.992188-26.332032-6.164063-6.050781-2.871093-12.304687-5.835937-22.289062-5.835937-16.199219 0-21.769531 7.429687-34.585938 10.511718.582032-5.695312 1.546876-11.359374 2.882813-16.933593 9.15625-3.765625 14.894531-8.582031 31.703125-8.582031 13.347656 0 19.652344 2.992187 26.328125 6.160156zm-61.578125 76.847656h31.5c15.714844 0 28.5 12.785156 28.5 28.5s-12.785156 28.503906-28.5 28.503906h-31.5zm203.421875 133.847656c-6.046875-2.871094-12.300781-5.839844-22.292969-5.839844-9.929687 0-16.207031 2.964844-22.277344 5.832032-6.714843 3.171875-13.0625 6.167968-26.339843 6.167968-13.355469 0-19.660157-2.992187-26.339844-6.164062-6.046875-2.871094-12.300781-5.835938-22.289063-5.835938-9.972656 0-16.242187 2.964844-22.300781 5.835938-6.695312 3.167969-13.019531 6.164062-26.320312 6.164062-13.355469 0-19.664063-2.996093-26.339844-6.164062-1.730469-.824219-3.496094-1.660156-5.375-2.4375-1.335937-5.570312-2.300781-11.230469-2.882813-16.925781 4.886719 1.167969 8.527344 2.894531 12.308594 4.6875 6.046875 2.871093 12.300782 5.835937 22.289063 5.835937 7.976562 0 13.546875-1.9375 17.945312-3.835937 3.800781-1.640625 5.554688-6.050781 3.914063-9.855469s-6.054688-5.5625-9.855469-3.917969c-3.632813 1.566407-7.0625 2.609375-12.003906 2.609375-6.609375 0-10.488281-1.839844-15.859375-4.386718-4.886719-2.320313-10.730469-5.089844-19.398438-6.5625v-27.050782h31.496094c23.984375 0 43.5-19.515625 43.5-43.503906s-19.515625-43.503906-43.5-43.503906h-31.5v-27.058594c8.621094-1.472656 14.476562-4.238281 19.371094-6.550781 5.402344-2.550781 9.308594-4.394531 15.878906-4.394531 6.605469 0 10.484375 1.84375 15.855469 4.390624 7.144531 3.390626 16.039062 7.613282 32.765625 7.613282 16.640625 0 25.566406-4.21875 32.738281-7.605469 5.40625-2.554687 9.308594-4.398437 15.878906-4.398437 6.613281 0 10.492188 1.84375 15.863281 4.390624 7.144532 3.390626 16.035157 7.613282 32.769532 7.613282 16.667968 0 25.574218-4.21875 32.730468-7.605469 5.390626-2.554687 9.289063-4.398437 15.886719-4.398437 6.613281 0 10.492188 1.84375 15.863281 4.390624 4.882813 2.316407 10.730469 5.089844 19.398438 6.558594v27.054688h-31.570312c-23.988282 0-43.5 19.515625-43.5 43.503906s19.511718 43.503906 43.5 43.503906h31.570312v27.058594c-8.621094 1.472656-14.472656 4.238281-19.367188 6.546875-5.402343 2.550781-9.304687 4.394531-15.882812 4.394531-6.605469 0-10.488281-1.839844-15.855469-4.386718-7.144531-3.394532-16.039062-7.613282-32.765625-7.613282-16.640625 0-25.566406 4.21875-32.738281 7.605469-5.40625 2.550781-9.308594 4.394531-15.878906 4.394531-6.613281 0-10.492188-1.839844-15.863281-4.386718-7.144532-3.394532-16.035157-7.613282-32.769532-7.613282-1.21875 0-2.398437.023438-3.53125.0625-4.140625.15625-7.371094 3.636719-7.214844 7.777344s3.640626 7.351562 7.773438 7.214844c.957031-.035156 1.945312-.054688 2.976562-.054688 13.351563 0 19.660157 2.992188 26.335938 6.164063 6.046875 2.871093 12.300781 5.835937 22.292969 5.835937 9.9375 0 16.214843-2.964844 22.285156-5.832031 6.714844-3.171875 13.058594-6.167969 26.335937-6.167969 13.347657 0 19.652344 2.996094 26.332032 6.164063 6.046875 2.871093 12.300781 5.839843 22.285156 5.839843 9.941406 0 16.222656-2.964843 22.292969-5.832031 3.785156-1.789062 7.433593-3.511719 12.292969-4.683593-.578126 5.695312-1.542969 11.351562-2.878907 16.921874-1.882812.773438-3.652343 1.613282-5.386719 2.433594-6.695312 3.167969-13.023437 6.160156-26.320312 6.160156-13.347656 0-19.652344-2.992187-26.328125-6.160156zm61.507813-133.847656v57.003906h-31.5c-15.714844 0-28.5-12.789062-28.5-28.503906s12.785156-28.5 28.5-28.5zm0 0"/><path d="m147.5 244.5c13.511719 0 24.5-10.992188 24.5-24.503906 0-13.511719-10.988281-24.5-24.5-24.5-13.507812 0-24.5 10.988281-24.5 24.5 0 13.511718 10.992188 24.503906 24.5 24.503906zm0-34.003906c5.238281 0 9.5 4.261718 9.5 9.503906 0 5.238281-4.261719 9.5-9.5 9.5s-9.5-4.261719-9.5-9.5c0-5.242188 4.261719-9.503906 9.5-9.503906zm0 0"/><path d="m147.5 316.503906c13.511719 0 24.5-10.992187 24.5-24.5 0-13.511718-10.988281-24.503906-24.5-24.503906-13.507812 0-24.5 10.992188-24.5 24.503906 0 13.507813 10.992188 24.5 24.5 24.5zm0-34c5.238281 0 9.5 4.261719 9.5 9.5 0 5.238282-4.261719 9.5-9.5 9.5s-9.5-4.261718-9.5-9.5c0-5.238281 4.261719-9.5 9.5-9.5zm0 0"/></svg>