<svg id="Capa_1" enable-background="new 0 0 512 512" height="512" viewBox="0 0 512 512" width="512" xmlns="http://www.w3.org/2000/svg"><g><path d="m361 166c0-57.891-47.109-105-105-105s-105 47.109-105 105 47.109 105 105 105 105-47.109 105-105zm-105-75c15.26 0 29.436 4.634 41.294 12.495l-103.799 103.799c-7.861-11.858-12.495-26.034-12.495-41.294 0-41.353 33.647-75 75-75zm0 150c-15.26 0-29.436-4.634-41.294-12.495l103.799-103.799c7.861 11.858 12.495 26.034 12.495 41.294 0 41.353-33.647 75-75 75z"/><path d="m467 181c-24.814 0-45 20.186-45 45 0 41.353-34.647 75-76 75h-45c-16.538 0-30 13.462-30 30s13.462 30 30 30h45c26.763 0 53.705-7.896 76-22.837v112.837h90v-225c0-24.814-20.186-45-45-45z"/><circle cx="467" cy="106" r="45"/><path d="m90 338.163c22.295 14.941 49.237 22.837 76 22.837h45c16.538 0 30-13.462 30-30s-13.462-30-30-30h-45c-41.353 0-76-33.647-76-75 0-24.814-20.186-45-45-45s-45 20.186-45 45v225h90z"/><circle cx="45" cy="106" r="45"/></g></svg>