<?xml version="1.0" encoding="iso-8859-1"?>
<!-- Generator: Adobe Illustrator 19.0.0, SVG Export Plug-In . SVG Version: 6.00 Build 0)  -->
<svg version="1.1" id="Capa_1" xmlns="http://www.w3.org/2000/svg" xmlns:xlink="http://www.w3.org/1999/xlink" x="0px" y="0px"
	 viewBox="0 0 480.002 480.002" style="enable-background:new 0 0 480.002 480.002;" xml:space="preserve">
<g>
	<g>
		<path d="M477.657,234.346l-232-232c-3.128-3.128-8.184-3.128-11.312,0l-98.344,98.344V64.002c0-4.416-3.576-8-8-8h-64
			c-4.424,0-8,3.584-8,8V180.69L2.345,234.346c-1.504,1.496-2.344,3.536-2.344,5.656v232c0,4.416,3.576,8,8,8h464
			c4.424,0,8-3.584,8-8v-232C480.001,237.882,479.161,235.842,477.657,234.346z M464.001,464.002h-448V243.314l53.656-53.656
			c1.504-1.496,2.344-3.536,2.344-5.656v-112h48v48c0,3.232,1.944,6.152,4.936,7.392c2.992,1.24,6.424,0.552,8.72-1.736
			L240.001,19.314l224,224V464.002z"/>
	</g>
</g>
<g>
	<g>
		<path d="M224.001,216.002h-56c-4.424,0-8,3.584-8,8c0,8.824-7.176,16-16,16c-8.824,0-16-7.176-16-16c0-4.416-3.576-8-8-8h-56
			c-4.424,0-8,3.584-8,8v32c0,4.416,3.576,8,8,8h16v80c0,4.416,3.576,8,8,8h112c4.424,0,8-3.584,8-8v-80h16c4.424,0,8-3.584,8-8v-32
			C232.001,219.586,228.425,216.002,224.001,216.002z M216.001,248.002h-16c-4.424,0-8,3.584-8,8v80h-96v-80c0-4.416-3.576-8-8-8
			h-16v-16h41.016c3.552,13.784,16.104,24,30.984,24s27.432-10.216,30.984-24h41.016V248.002z"/>
	</g>
</g>
<g>
	<g>
		<path d="M394.233,206.17c-12.336-7.56-28.344-5.448-38.944,5.16c-1.184,1.184-2.576,2.072-4.04,2.792
			c-3.584-24.856-20.064-54.12-47.248-54.12v16c16.096,0,27.376,19.304,30.856,37.056c-0.76-0.52-1.488-1.072-2.152-1.736
			c-10.584-10.6-26.616-12.712-38.928-5.152c-28.664,17.584-45.776,48.176-45.776,81.832s17.112,64.248,45.768,81.832
			c12.344,7.56,28.352,5.456,38.944-5.16c6.016-6.032,16.552-6.032,22.584,0c6.344,6.352,14.64,9.664,22.92,9.664
			c5.536,0,11.072-1.48,16.008-4.504c28.664-17.584,45.776-48.176,45.776-81.832S422.889,223.754,394.233,206.17z M385.857,356.194
			c-6,3.688-13.904,2.528-19.24-2.816c-6.032-6.04-14.064-9.376-22.616-9.376s-16.584,3.336-22.608,9.376
			c-5.336,5.336-13.248,6.504-19.256,2.816c-23.88-14.648-38.136-40.144-38.136-68.192c0-28.048,14.256-53.544,38.144-68.192
			c5.992-3.688,13.904-2.52,19.24,2.816c6.032,6.04,14.064,9.376,22.616,9.376s16.584-3.336,22.608-9.376
			c5.336-5.336,13.24-6.504,19.256-2.816c23.88,14.648,38.136,40.144,38.136,68.192C424.001,316.05,409.745,341.546,385.857,356.194
			z"/>
	</g>
</g>
<g>
	<g>
		<path d="M264.001,400.002v-8c0-4.416-3.576-8-8-8h-152v-16h-16v16h-40v-16h-16v24v32v24h16v-16h40v16h16v-16h152
			c4.424,0,8-3.584,8-8v-8h112v-16H264.001z M88.001,416.002h-40v-16h40V416.002z M120.001,416.002h-16v-16h16V416.002z
			 M152.001,416.002h-16v-16h16V416.002z M184.001,416.002h-16v-16h16V416.002z M216.001,416.002h-16v-16h16V416.002z
			 M248.001,416.002h-16v-16h16V416.002z"/>
	</g>
</g>
<g>
</g>
<g>
</g>
<g>
</g>
<g>
</g>
<g>
</g>
<g>
</g>
<g>
</g>
<g>
</g>
<g>
</g>
<g>
</g>
<g>
</g>
<g>
</g>
<g>
</g>
<g>
</g>
<g>
</g>
</svg>
