<svg id="Capa_1" enable-background="new 0 0 512 512" height="512" viewBox="0 0 512 512" width="512" xmlns="http://www.w3.org/2000/svg"><g id="XMLID_1605_"><g id="XMLID_137_"><path id="XMLID_139_" d="m278.661 230.088c3.905-3.905 3.905-10.237 0-14.143s-10.237-3.905-14.143 0c-4.696 4.697-12.34 4.697-17.036 0-3.905-3.905-10.237-3.905-14.143 0s-3.905 10.237 0 14.143c6.248 6.247 14.454 9.371 22.661 9.371s16.413-3.124 22.661-9.371z"/><path id="XMLID_418_" d="m256.131 55.126c-16.913 0-30.672 13.76-30.672 30.672s13.76 30.672 30.672 30.672 30.672-13.76 30.672-30.672-13.759-30.672-30.672-30.672zm0 41.345c-5.885 0-10.672-4.788-10.672-10.672s4.788-10.672 10.672-10.672 10.672 4.788 10.672 10.672-4.787 10.672-10.672 10.672z"/><path id="XMLID_419_" d="m256 492c-2.63 0-5.21 1.069-7.07 2.93-1.86 1.86-2.93 4.44-2.93 7.07s1.07 5.21 2.93 7.069c1.86 1.86 4.44 2.931 7.07 2.931s5.21-1.07 7.07-2.931c1.86-1.859 2.93-4.439 2.93-7.069s-1.07-5.21-2.93-7.07-4.44-2.93-7.07-2.93z"/><path id="XMLID_422_" d="m356.956 301.815h-49.611v-29.317c24.906-16.635 41.344-44.997 41.344-77.13v-37.554h85.093c5.523 0 10-4.477 10-10s-4.477-10-10-10h-76.824v-64.42c0-32.871-26.742-59.613-59.613-59.613h-31.345v-3.781c0-5.523-4.477-10-10-10s-10 4.477-10 10v3.782h-31.345c-32.871 0-59.613 26.742-59.613 59.613v74.42c0 4.931 3.573 9.019 8.269 9.84v37.714c0 32.133 16.438 60.495 41.344 77.13v29.317h-49.611c-61.007 0-110.641 49.633-110.641 110.64v89.544c0 5.522 4.477 10 10 10h156.597c5.523 0 10-4.478 10-10s-4.477-10-10-10h-85v-60h20v8c0 17.645 14.355 32 32 32s32-14.355 32-32v-8h92v8c0 17.645 14.355 32 32 32s32-14.355 32-32v-8h20v60h-85c-5.523 0-10 4.478-10 10s4.477 10 10 10h156.596c5.523 0 10-4.478 10-10v-89.545c0-61.007-49.633-110.64-110.64-110.64zm-181.914-228.42c0-21.843 17.771-39.613 39.613-39.613h82.689c21.843 0 39.613 17.771 39.613 39.613v64.42h-161.915zm8.269 121.974v-37.554h145.378v37.554c0 40.081-32.608 72.689-72.689 72.689s-72.689-32.608-72.689-72.689zm72.689 92.69c10.997 0 21.55-1.929 31.345-5.46v25.786c0 17.283-14.061 31.345-31.345 31.345s-31.345-14.062-31.345-31.345v-25.786c9.795 3.53 20.348 5.46 31.345 5.46zm-140 123.941c-5.523 0-10 4.478-10 10v70h-41.596v-79.545c0-46.926 35.847-85.636 81.596-90.189v89.734zm74 28c0 6.617-5.383 12-12 12s-12-5.383-12-12v-118.185h24zm20-28v-80.841c8.408 16.914 25.865 28.571 46 28.571s37.592-11.656 46-28.571v80.841zm136 28c0 6.617-5.383 12-12 12s-12-5.383-12-12v-118.185h24zm101.596 52h-41.596v-70c0-5.522-4.477-10-10-10h-30v-89.734c45.749 4.553 81.596 43.263 81.596 90.189z"/></g></g></svg>